<?xml version="1.0" standalone="no"?>
<!DOCTYPE svg PUBLIC "-//W3C//DTD SVG 20010904//EN"
 "http://www.w3.org/TR/2001/REC-SVG-20010904/DTD/svg10.dtd">
<svg version="1.0" xmlns="http://www.w3.org/2000/svg"
 width="1334.000000pt" height="1334.000000pt" viewBox="0 0 1334.000000 1334.000000"
 preserveAspectRatio="xMidYMid meet">
<metadata>
Created by potrace 1.14, written by Peter Selinger 2001-2017
</metadata>
<g transform="translate(0.000000,1334.000000) scale(0.100000,-0.100000)"
fill="#000000" stroke="none">
<path d="M10940 12413 c-347 -34 -664 -206 -842 -458 -141 -198 -203 -415
-202 -700 1 -521 215 -980 624 -1337 30 -27 52 -48 49 -48 -2 0 -20 5 -39 10
-53 15 -127 23 -205 21 -160 -3 -270 -71 -305 -188 -28 -94 25 -173 140 -208
136 -42 381 -19 537 50 l51 23 -30 -71 c-76 -179 -98 -232 -98 -239 0 -4 62
-7 137 -6 l137 2 17 -80 c33 -153 98 -275 203 -380 l62 -62 108 1 c100 1 107
2 87 16 -154 113 -213 179 -275 306 -45 91 -74 181 -63 192 4 3 121 6 261 6
l255 0 -38 76 c-113 227 -141 285 -138 287 1 2 42 -13 90 -32 134 -53 275 -85
374 -86 71 0 93 4 136 26 75 37 115 106 112 196 -5 152 -104 225 -301 221 -40
-1 -82 -4 -95 -6 -18 -4 -3 15 57 74 274 268 438 578 529 1006 4 22 13 86 20
150 6 51 6 209 0 255 -5 38 -17 117 -21 137 -8 41 -50 158 -79 218 -110 232
-345 440 -608 539 -76 29 -196 62 -252 70 -23 4 -52 9 -65 12 -30 6 -281 11
-330 7z m374 -137 c392 -75 696 -314 813 -640 59 -164 66 -404 20 -627 -117
-560 -471 -1008 -952 -1205 -49 -20 -94 -40 -98 -44 -4 -4 16 -18 45 -31 l53
-23 75 -154 c41 -84 76 -157 78 -161 1 -4 -121 -8 -273 -8 -151 0 -275 1 -275
3 0 2 32 77 71 166 38 90 72 171 74 182 3 10 7 21 9 24 3 3 -11 14 -32 24
-124 66 -301 201 -431 329 -227 224 -404 559 -446 846 -4 21 -8 45 -10 53 -17
60 -26 324 -14 395 4 22 10 58 13 80 3 22 14 72 25 110 105 371 414 626 836
690 107 16 309 12 419 -9z m604 -2465 c77 -41 50 -178 -36 -182 -78 -4 -113 1
-252 35 -25 7 -214 76 -218 81 -12 12 199 70 294 80 33 4 60 8 61 9 7 6 132
-13 151 -23z m-1503 -34 c60 -6 86 -12 190 -43 114 -34 116 -36 44 -68 -139
-63 -373 -82 -471 -38 -27 11 -48 26 -48 32 0 26 32 70 66 90 31 20 130 40
159 34 6 -2 33 -5 60 -7z"/>
<path d="M6622 10882 c-8 -2 -11 -136 -11 -508 l0 -504 59 0 c41 0 60 4 60 13
1 20 1 940 0 973 0 31 -1 31 -48 31 -27 -1 -54 -3 -60 -5z"/>
<path d="M5828 10676 l-46 -22 37 -90 c21 -49 88 -206 150 -349 63 -143 131
-303 153 -355 22 -52 42 -98 44 -102 4 -6 101 26 111 36 3 2 -17 57 -41 111
-179 420 -343 789 -351 791 -6 1 -31 -8 -57 -20z"/>
<path d="M7433 10663 c-32 -79 -365 -847 -369 -855 -5 -7 33 -30 81 -48 30
-11 19 -32 185 355 61 143 119 278 129 300 43 93 102 237 99 240 -5 4 -100 45
-105 45 -2 0 -11 -17 -20 -37z"/>
<path d="M5138 10180 l-38 -48 38 -33 c70 -61 211 -186 347 -308 22 -20 78
-70 125 -111 47 -41 101 -89 120 -107 73 -66 105 -93 110 -93 3 0 22 20 43 44
l37 44 -338 299 c-185 165 -353 313 -372 330 l-35 30 -37 -47z"/>
<path d="M8120 10187 c-20 -17 -71 -63 -115 -102 -43 -38 -86 -77 -95 -85 -9
-8 -52 -46 -96 -85 -43 -38 -92 -82 -109 -97 -16 -15 -41 -36 -54 -47 -24 -21
-157 -140 -198 -177 -13 -12 -23 -25 -23 -30 0 -5 16 -26 36 -47 31 -32 38
-36 53 -25 17 14 155 136 286 253 44 39 100 89 125 111 25 21 50 44 56 49 6 6
46 42 90 80 43 39 99 89 124 112 l44 41 -39 41 c-22 23 -42 41 -45 41 -3 0
-21 -15 -40 -33z"/>
<path d="M4782 9590 c-12 -28 -22 -52 -22 -55 0 -3 184 -97 410 -210 l410
-205 25 50 c14 27 25 52 25 55 0 4 -814 415 -823 415 -2 0 -13 -23 -25 -50z"/>
<path d="M8118 9434 l-407 -204 12 -28 c6 -15 18 -39 27 -53 l15 -27 412 206
411 205 -26 54 c-14 29 -29 53 -32 52 -3 0 -188 -92 -412 -205z"/>
<path d="M875 8729 c-124 -11 -208 -47 -299 -130 -82 -75 -137 -179 -153 -289
-4 -25 -7 -493 -7 -1040 l1 -995 22 -65 c41 -118 124 -222 228 -281 92 -53
131 -60 346 -64 185 -4 197 -3 189 13 -8 15 -12 49 -15 107 -5 82 28 200 83
306 l29 55 -93 48 c-349 176 -347 420 4 654 l86 57 -18 47 c-90 244 54 457
377 558 78 24 202 33 267 19 112 -24 253 -128 308 -227 l23 -40 61 33 c154 84
289 77 389 -20 20 -21 37 -40 37 -44 0 -3 4 -12 9 -20 7 -10 20 -5 60 27 184
146 448 184 719 106 121 -35 277 -107 394 -181 55 -35 102 -63 104 -63 2 0 3
233 1 518 -3 506 -3 518 -25 576 -53 142 -159 253 -287 302 -27 10 -52 19 -55
20 -3 0 -23 4 -44 9 -46 9 -2625 13 -2741 4z"/>
<path d="M5277 8723 c-198 -33 -362 -194 -403 -395 -4 -18 -7 -485 -8 -1038 0
-825 2 -1014 13 -1055 48 -172 181 -310 346 -358 43 -12 250 -14 1445 -14
1071 0 1405 3 1441 12 117 31 240 127 301 234 68 119 66 75 64 1206 -2 1007
-2 1021 -23 1076 -62 166 -179 276 -346 324 -52 15 -289 26 -301 14 -2 -2 -7
-35 -11 -74 -21 -237 -98 -445 -224 -610 -97 -127 -236 -242 -365 -301 -34
-16 -56 -32 -57 -42 0 -9 -2 -26 -4 -37 -2 -11 -7 -40 -10 -65 -3 -25 -8 -56
-10 -70 -4 -21 -14 -91 -41 -285 -4 -22 -8 -47 -9 -55 -2 -8 -4 -22 -4 -30 -1
-13 -53 -15 -406 -15 l-405 0 -5 30 c-3 16 -7 50 -10 75 -2 25 -6 61 -9 80 -9
62 -25 186 -31 241 -3 30 -8 63 -10 74 -2 11 -4 32 -4 46 -1 22 -10 30 -53 48
-186 77 -367 250 -466 446 -66 131 -124 373 -125 518 0 15 -5 27 -11 27 -136
5 -202 3 -259 -7z m1793 -1730 c3 -7 4 -33 2 -58 l-4 -45 -398 0 c-446 0 -408
-7 -402 74 l4 41 396 0 c309 0 398 -2 402 -12z m-5 -224 c6 -4 8 -30 7 -58
l-4 -51 -399 0 -399 0 0 58 0 59 393 0 c215 0 397 -3 402 -8z m11 -269 c0 -25
-1 -50 -3 -56 -3 -8 -119 -11 -404 -12 l-399 0 0 59 0 59 403 -2 402 -3 1 -45z
m-255 -212 c2 -18 3 -45 1 -60 l-3 -27 -154 1 c-173 2 -164 -3 -156 81 l3 37
153 0 153 0 3 -32z"/>
<path d="M5745 8730 c-58 -6 -56 1 -41 -135 30 -277 188 -553 387 -681 56 -35
172 -94 186 -94 6 0 14 -4 17 -9 5 -8 18 -88 31 -191 2 -19 7 -60 11 -90 3
-30 8 -63 10 -73 4 -24 17 -137 18 -159 0 -13 9 -18 31 -19 187 -4 215 -3 216
6 0 6 1 146 1 312 1 207 4 307 12 316 6 7 35 33 65 57 l54 44 -124 34 c-202
54 -261 71 -309 85 -44 14 -44 15 -20 24 327 134 425 175 428 177 1 2 -44 17
-100 34 -57 17 -143 43 -193 58 -49 14 -92 28 -94 30 -2 2 12 18 31 36 40 38
202 185 229 209 11 9 19 20 19 25 0 9 -776 13 -865 4z"/>
<path d="M6829 8730 c-43 -5 -55 -13 -155 -108 -85 -81 -105 -105 -94 -112 8
-6 20 -10 25 -11 14 -1 32 -6 95 -24 30 -9 78 -23 105 -30 137 -37 280 -77
283 -79 1 -2 -101 -45 -228 -97 -126 -51 -230 -96 -230 -99 0 -3 81 -28 181
-56 l181 -50 -104 -84 c-57 -47 -115 -95 -130 -109 l-27 -24 0 -283 1 -284 24
-1 c13 0 63 -1 112 -2 l87 -1 22 150 c12 82 24 165 26 184 3 19 10 72 17 118
l12 83 72 36 c316 159 520 460 543 803 l6 85 -389 0 c-214 0 -410 -2 -435 -5z"/>
<path d="M9755 8732 c-194 -19 -370 -172 -423 -368 -19 -68 -20 -111 -20
-1055 -1 -804 2 -996 13 -1052 43 -210 224 -373 436 -394 63 -6 120 11 414
122 1056 400 1738 959 1824 1495 28 171 -1 328 -95 513 -114 225 -359 487
-637 680 l-88 62 -697 0 c-383 0 -710 -1 -727 -3z"/>
<path d="M11492 8730 l-63 -5 68 -52 c339 -259 591 -598 649 -874 2 -13 9 -44
14 -69 9 -44 7 -266 -3 -305 -41 -162 -63 -220 -120 -325 -174 -320 -478 -594
-987 -890 -192 -111 -564 -292 -660 -321 -22 -7 -40 -15 -40 -19 0 -4 484 -7
1076 -7 l1075 0 71 24 c168 57 286 183 331 354 21 80 21 2026 0 2109 -48 195
-201 339 -397 375 -44 9 -918 13 -1014 5z"/>
<path d="M1742 7584 c-143 -31 -257 -96 -313 -177 -31 -45 -34 -56 -34 -121 1
-78 25 -139 84 -205 l30 -35 -53 -21 c-110 -45 -263 -141 -306 -192 -105 -124
-85 -190 87 -292 68 -40 239 -111 268 -111 8 0 15 -2 15 -5 0 -2 -24 -42 -54
-87 -70 -108 -89 -148 -116 -237 -24 -77 -24 -175 -2 -218 11 -20 16 -20 1119
-20 1215 0 1180 -1 1297 60 112 59 225 204 253 322 3 17 7 221 7 454 1 412 0
425 -19 444 -11 10 -69 51 -130 92 -363 244 -690 286 -946 122 -68 -44 -166
-143 -200 -203 -22 -37 -28 -42 -32 -28 -6 21 -19 101 -18 109 2 15 -54 124
-76 148 -76 78 -205 40 -360 -106 -36 -34 -54 -45 -57 -36 -3 8 -15 43 -27 79
-38 113 -102 198 -188 248 -53 31 -133 36 -229 16z"/>
<path d="M4036 7209 c3 -75 5 -82 31 -101 56 -43 134 -133 159 -185 72 -146
26 -302 -133 -459 -35 -34 -63 -64 -63 -67 0 -3 11 -7 23 -11 36 -9 96 -70
119 -123 30 -67 29 -184 -1 -273 -83 -242 -293 -423 -553 -476 -112 -23 -321
-23 -408 1 -8 2 -31 6 -50 9 -109 16 -355 106 -502 183 l-87 46 -48 -39 c-26
-21 -50 -41 -53 -44 -34 -35 -166 -107 -250 -136 -78 -26 -229 -26 -290 0 -98
42 -200 142 -247 241 -14 29 -21 35 -38 30 -11 -3 -55 -9 -97 -12 -83 -6 -125
4 -165 40 -17 15 -39 21 -88 23 -36 1 -67 -1 -70 -6 -10 -16 57 -102 102 -130
61 -39 109 -52 200 -53 l73 -1 27 -39 c15 -21 55 -64 89 -95 53 -49 85 -70
175 -113 58 -28 216 -35 312 -14 90 19 229 87 324 156 53 40 72 46 88 30 6 -5
57 -29 115 -54 340 -144 591 -187 859 -148 290 43 532 214 655 465 55 111 74
187 71 286 -3 88 -25 156 -70 224 l-33 50 42 48 c87 100 130 212 129 335 -1
76 -5 90 -43 169 -33 68 -59 104 -119 163 -42 43 -97 92 -123 109 -27 18 -48
37 -48 42 0 6 -4 10 -9 10 -4 0 -7 -36 -5 -81z"/>
<path d="M2394 5389 c-138 -43 -214 -144 -202 -270 6 -60 43 -118 106 -166 56
-42 109 -57 207 -57 66 0 90 4 138 27 171 79 215 259 94 385 -80 84 -224 118
-343 81z m240 -124 c149 -98 43 -281 -156 -270 -69 4 -139 40 -169 88 -40 64
-7 154 71 192 75 37 188 33 254 -10z"/>
<path d="M1795 5134 c-125 -43 -192 -154 -159 -264 34 -116 180 -170 333 -124
75 22 146 93 155 155 3 24 4 58 0 74 -23 127 -189 207 -329 159z m172 -98 c84
-44 86 -148 3 -191 -69 -36 -187 -27 -227 17 -12 13 -18 36 -18 63 0 102 136
164 242 111z"/>
<path d="M1260 4950 c-51 -10 -82 -25 -112 -54 -59 -57 -56 -164 6 -219 45
-40 80 -50 166 -51 100 -1 167 25 199 77 36 59 33 138 -7 185 -45 52 -160 80
-252 62z m153 -102 c58 -23 55 -92 -4 -121 -41 -19 -150 -15 -184 7 -25 16
-36 52 -24 83 16 45 136 62 212 31z"/>
<path d="M783 4799 c-36 -11 -92 -63 -94 -87 -1 -9 -3 -28 -4 -42 -6 -56 94
-114 182 -106 150 14 196 157 71 222 -38 20 -113 26 -155 13z"/>
<path d="M9578 4564 c-56 -17 -104 -62 -132 -124 -28 -61 -29 -214 -3 -280 39
-95 113 -143 222 -144 56 0 82 5 120 24 57 28 102 86 110 140 l6 36 -51 -1
c-48 0 -52 -2 -72 -37 -34 -60 -123 -81 -176 -41 -48 36 -66 79 -65 159 0 87
23 139 73 166 66 35 150 12 171 -46 11 -30 13 -31 62 -29 27 2 52 4 54 7 11
10 -21 90 -48 120 -51 59 -172 81 -271 50z"/>
<path d="M4855 4560 c-2 -3 -4 -124 -4 -268 l-1 -262 58 0 57 0 -1 258 c-1
141 -2 262 -3 267 -1 11 -99 16 -106 5z"/>
<path d="M7595 4561 c-40 -8 -59 -56 -30 -77 45 -33 128 3 105 46 -15 27 -40
37 -75 31z"/>
<path d="M9082 4556 c-4 -6 -7 -127 -7 -268 l0 -258 52 0 c35 0 53 4 54 13 1
14 1 436 0 487 -1 35 -1 35 -47 36 -25 0 -48 -5 -52 -10z"/>
<path d="M10425 4561 c-3 -2 -5 -123 -5 -268 l0 -263 53 0 52 0 0 267 0 267
-48 1 c-26 1 -50 -1 -52 -4z"/>
<path d="M10623 4557 c-3 -5 -6 -126 -7 -268 l-1 -259 55 0 56 0 -1 267 0 268
-48 1 c-26 1 -50 -3 -54 -9z"/>
<path d="M11675 4540 c-17 -18 -17 -21 -1 -45 12 -18 25 -25 50 -25 32 0 66
24 66 48 0 41 -83 57 -115 22z"/>
<path d="M5525 4530 c-1 -3 -2 -21 -2 -40 1 -51 -8 -70 -33 -65 -17 3 -20 -1
-20 -36 0 -35 3 -39 25 -39 17 0 25 -6 26 -17 0 -10 1 -67 1 -127 0 -165 7
-175 113 -181 l55 -2 0 43 c0 39 -2 43 -27 46 l-28 3 -3 118 -3 117 31 0 c28
0 30 2 30 40 0 36 -2 39 -27 37 -27 -2 -28 0 -33 53 l-5 55 -48 1 c-27 0 -50
-3 -52 -6z"/>
<path d="M7330 4483 c0 -50 -5 -58 -32 -54 -10 1 -25 -31 -22 -46 1 -7 2 -17
3 -23 0 -5 12 -10 26 -10 l25 0 0 -129 c0 -71 4 -141 10 -155 10 -28 51 -43
115 -41 40 1 40 1 41 42 1 36 -1 41 -23 41 -13 0 -26 2 -29 5 -3 3 -6 56 -7
119 l-1 113 32 3 c32 3 33 5 30 40 -2 31 -7 37 -26 37 -30 0 -39 17 -35 65 2
22 0 40 -5 41 -4 0 -28 2 -54 3 l-48 3 0 -54z"/>
<path d="M12287 4526 c-2 -6 -3 -30 -2 -53 2 -42 -5 -49 -37 -44 -9 1 -10 -2
-12 -44 -2 -25 3 -31 23 -35 l25 -5 1 -131 c1 -106 4 -137 18 -158 10 -14 21
-26 25 -27 4 -1 33 -2 65 -3 l57 -2 0 42 c0 39 -2 43 -27 46 l-28 3 -3 118 -3
117 31 0 c28 0 30 2 30 40 0 36 -2 39 -27 37 -27 -2 -28 0 -33 53 l-5 55 -47
1 c-27 1 -49 -4 -51 -10z"/>
<path d="M5240 4428 c-13 -5 -33 -16 -42 -25 -18 -16 -19 -15 -22 10 -1 8 -19
12 -53 12 l-53 1 -1 -46 c0 -25 -1 -112 -1 -195 l-1 -150 56 -3 56 -3 -1 131
c0 138 11 179 50 181 9 0 24 2 33 4 44 8 55 -31 54 -192 l-1 -123 57 0 56 0
-2 158 c-2 166 -10 201 -48 227 -29 19 -103 26 -137 13z"/>
<path d="M5844 4429 c-40 -11 -90 -67 -103 -116 -25 -88 -7 -189 42 -241 69
-74 206 -74 273 0 21 22 44 61 44 72 0 3 -24 6 -53 6 -41 0 -58 -5 -72 -20
-27 -30 -90 -27 -110 4 -9 13 -17 33 -20 44 -3 19 1 20 119 19 67 0 127 3 133
6 17 11 5 96 -20 146 -38 77 -134 109 -233 80z m132 -107 c7 -9 14 -25 14 -34
0 -16 -10 -18 -75 -18 -41 0 -75 2 -75 4 0 21 24 58 42 66 31 13 78 4 94 -18z"/>
<path d="M6340 4429 c-14 -5 -35 -22 -47 -37 l-23 -27 0 31 c0 31 -1 31 -47
30 l-48 -2 -2 -197 -2 -197 54 0 55 0 0 123 c0 110 2 126 20 145 12 12 24 22
28 23 29 3 67 11 71 14 3 4 4 58 2 93 -1 14 -26 15 -61 1z"/>
<path d="M6635 4432 c-11 -2 -27 -10 -35 -17 -31 -25 -41 -28 -38 -9 2 14 -5
18 -45 19 -26 1 -50 -2 -54 -8 -3 -6 -7 -95 -7 -199 l-1 -188 56 0 55 0 -1
121 c0 73 4 132 11 149 13 29 38 47 64 44 8 -1 22 -2 32 -3 26 -2 34 -47 33
-183 l-1 -128 53 0 53 0 1 38 c6 249 -5 328 -50 352 -22 11 -97 19 -126 12z"/>
<path d="M6983 4429 c-31 -9 -82 -59 -84 -82 0 -7 -2 -20 -4 -29 -3 -15 5 -18
51 -18 46 0 54 3 54 19 0 37 101 47 120 12 14 -27 -9 -51 -52 -55 -131 -13
-181 -46 -184 -124 -3 -66 19 -107 67 -126 47 -19 121 -7 155 25 21 20 21 20
27 0 4 -18 13 -21 62 -21 51 0 56 2 49 18 -5 9 -11 85 -14 167 -3 83 -9 158
-14 167 -21 44 -152 71 -233 47z m142 -247 c-3 -42 -26 -71 -62 -78 -57 -11
-85 11 -75 58 3 16 27 28 92 45 44 12 48 10 45 -25z"/>
<path d="M7868 4431 c-82 -27 -124 -92 -127 -200 -2 -53 3 -79 18 -109 26 -52
72 -90 119 -98 20 -4 44 -8 53 -9 40 -8 111 18 149 53 45 44 64 102 58 182 -9
117 -69 179 -180 186 -35 2 -75 0 -90 -5z m126 -100 c24 -20 39 -80 32 -129
-8 -60 -38 -92 -85 -92 -62 1 -91 39 -91 117 0 57 17 93 50 110 28 14 73 11
94 -6z"/>
<path d="M8392 4430 c-18 -4 -41 -15 -51 -24 -19 -17 -32 -21 -30 -8 4 23 -5
29 -51 28 l-50 -1 0 -197 0 -198 54 0 54 0 0 98 c0 154 1 166 20 189 31 41
105 34 115 -11 3 -11 4 -78 4 -149 l-2 -127 55 0 56 0 -1 164 c-1 173 -8 201
-54 226 -28 15 -81 19 -119 10z"/>
<path d="M8724 4426 c-41 -18 -74 -62 -74 -97 0 -28 2 -29 50 -29 36 0 50 4
50 14 0 37 81 55 111 25 10 -10 19 -23 19 -28 0 -17 -29 -32 -76 -38 -87 -10
-127 -27 -150 -61 -25 -36 -26 -98 -4 -144 14 -29 74 -59 106 -53 10 2 29 4
41 4 12 1 35 12 51 26 30 25 31 25 37 5 5 -17 15 -20 66 -20 59 0 60 0 47 23
-8 14 -13 70 -14 163 -1 88 -6 149 -14 163 -26 50 -175 79 -246 47z m152 -246
c-5 -61 -62 -96 -120 -74 -20 8 -21 57 -2 73 12 10 81 33 118 40 3 0 5 -17 4
-39z"/>
<path d="M10082 4432 c-38 -12 -91 -61 -108 -100 -9 -20 -17 -66 -17 -102 -2
-132 71 -213 192 -213 68 0 123 24 156 67 70 93 49 265 -40 325 -36 25 -137
37 -183 23z m125 -103 c40 -34 40 -162 0 -200 -32 -29 -93 -23 -120 13 -41 55
-24 177 27 199 25 10 73 4 93 -12z"/>
<path d="M10890 4418 c-84 -43 -120 -171 -79 -282 23 -62 51 -91 103 -109 96
-32 203 11 235 96 l11 27 -54 0 c-40 0 -57 -5 -71 -20 -39 -43 -125 -13 -125
44 l0 24 122 -1 c122 0 123 0 128 24 3 13 1 47 -6 76 -21 92 -68 132 -162 140
-46 4 -66 0 -102 -19z m138 -88 c12 -12 22 -30 22 -40 0 -18 -7 -20 -75 -20
l-75 0 11 27 c20 54 77 70 117 33z"/>
<path d="M11311 4429 c-37 -15 -80 -68 -92 -113 -6 -22 -9 -70 -7 -107 7 -120
75 -187 180 -177 27 3 57 13 68 23 20 18 20 17 20 -17 0 -45 -26 -78 -65 -82
-30 -3 -65 9 -76 26 -7 11 -107 13 -117 3 -10 -10 27 -74 53 -91 35 -23 163
-31 207 -14 46 18 86 58 94 92 4 23 9 387 5 443 -1 6 -22 11 -48 10 -36 0 -48
-4 -54 -20 -4 -11 -8 -15 -8 -10 -2 32 -110 55 -160 34z m135 -102 c20 -18 28
-35 31 -74 7 -70 -17 -120 -62 -129 -60 -11 -95 24 -98 100 -3 102 65 157 129
103z"/>
<path d="M11942 4426 c-41 -19 -59 -37 -72 -72 -16 -42 -6 -54 43 -54 37 0 46
4 55 25 11 25 23 29 72 27 32 -2 53 -29 40 -52 -6 -11 -32 -21 -82 -29 -78
-13 -133 -42 -142 -76 -27 -99 27 -186 112 -179 12 1 31 2 41 3 11 0 33 12 49
26 29 24 30 24 35 5 4 -17 14 -20 62 -20 51 0 56 2 49 18 -5 9 -11 85 -14 167
-3 83 -9 157 -13 166 -23 48 -167 75 -235 45z m144 -244 c-2 -15 -5 -30 -5
-34 -2 -19 -48 -48 -76 -48 -36 0 -55 15 -55 46 0 29 19 43 77 58 57 16 65 13
59 -22z"/>
<path d="M12605 4429 c-76 -23 -119 -100 -117 -207 3 -128 78 -208 192 -205
70 2 127 37 159 100 16 32 15 33 -39 33 -37 0 -57 -5 -72 -20 -22 -20 -73 -27
-94 -12 -17 11 -36 52 -31 67 4 9 35 13 119 13 62 0 118 1 124 1 19 2 5 108
-20 154 -41 72 -131 104 -221 76z m100 -85 c18 -7 47 -58 38 -68 -10 -10 -143
-7 -143 4 0 49 55 83 105 64z"/>
<path d="M7559 4420 c-1 -7 -1 -362 0 -377 1 -9 19 -13 54 -13 l52 0 0 197 0
197 -53 1 c-28 0 -52 -2 -53 -5z"/>
<path d="M11680 4420 c-4 -3 -8 -92 -9 -197 l-1 -193 55 0 55 0 0 199 0 199
-46 -1 c-25 -1 -49 -4 -54 -7z"/>
<path d="M1532 4404 c-179 -37 -317 -159 -377 -334 -29 -86 -37 -141 -39 -260
-2 -116 14 -193 59 -285 90 -187 248 -279 465 -271 197 8 342 90 411 234 28
58 59 175 48 182 -4 3 -47 5 -95 5 l-87 0 -17 -51 c-45 -132 -124 -198 -248
-209 -150 -13 -256 64 -304 219 -33 107 -30 272 6 380 36 106 80 165 151 200
100 51 253 39 321 -24 34 -33 71 -99 79 -142 l7 -37 96 2 c58 1 96 6 95 12 -1
6 -4 30 -8 54 -9 62 -41 139 -78 188 -87 113 -302 174 -485 137z"/>
<path d="M3865 4403 c-186 -37 -315 -156 -381 -350 -23 -66 -28 -99 -31 -213
-3 -151 14 -239 65 -335 67 -125 175 -210 301 -239 68 -16 213 -16 276 -1 108
26 208 93 262 174 36 54 86 191 81 220 -3 13 -20 16 -95 16 l-92 1 -16 -49
c-48 -145 -152 -221 -292 -212 -131 9 -208 70 -253 200 -43 125 -43 277 1 408
52 155 141 221 295 221 121 0 186 -39 234 -141 11 -23 22 -52 23 -65 4 -22 8
-23 101 -25 l98 -2 -7 42 c-24 157 -102 268 -225 319 -98 41 -234 53 -345 31z"/>
<path d="M2713 4395 c-75 -20 -129 -50 -183 -101 -26 -24 -49 -44 -52 -44 -2
0 -4 28 -4 63 l1 62 -96 1 -97 2 1 -767 0 -766 96 0 96 0 2 270 c1 149 2 273
2 276 1 4 22 -14 48 -39 27 -25 73 -57 103 -71 48 -22 70 -26 167 -28 88 -2
124 2 167 17 225 77 341 274 340 580 0 206 -54 346 -170 449 -111 98 -275 135
-421 96z m162 -162 c139 -27 225 -179 226 -396 0 -51 -2 -99 -5 -107 -3 -8 -7
-32 -11 -53 -15 -105 -113 -224 -208 -252 -134 -40 -266 2 -335 104 -49 74
-65 133 -67 256 -8 340 135 500 400 448z"/>
<path d="M749 4336 c0 -23 0 -268 -1 -546 l0 -505 100 -2 101 -1 0 547 0 548
-100 0 -99 0 -1 -41z"/>
<path d="M9995 3790 c-63 -13 -87 -25 -125 -63 -107 -108 -94 -364 23 -450 47
-36 88 -46 169 -43 102 3 172 45 204 121 26 64 21 75 -39 75 -49 0 -53 -2 -64
-30 -24 -63 -125 -87 -189 -46 -63 42 -83 201 -35 279 50 81 193 79 224 -3 10
-26 15 -29 64 -29 l54 0 -6 35 c-10 69 -51 118 -118 143 -38 15 -117 20 -162
11z"/>
<path d="M4852 3513 l3 -268 55 0 55 0 0 93 c0 50 2 92 5 93 3 1 46 2 95 3
109 3 145 20 176 84 27 55 24 158 -7 198 -40 55 -75 64 -236 64 l-148 0 2
-267z m280 147 c29 -36 21 -101 -15 -117 -12 -5 -51 -9 -87 -8 l-65 0 0 70 c0
39 3 73 7 76 5 3 39 5 75 4 56 -2 70 -6 85 -25z"/>
<path d="M8525 3766 c-26 -19 -29 -52 -5 -69 26 -18 81 -12 98 10 16 23 15 30
-8 53 -23 23 -58 26 -85 6z"/>
<path d="M11254 3699 c2 -47 1 -51 -24 -55 -22 -5 -26 -11 -26 -39 0 -29 5
-35 26 -40 l25 -5 1 -137 c0 -135 0 -136 28 -159 21 -19 39 -24 82 -24 57 0
62 6 54 60 -3 20 -4 21 -29 23 -11 1 -22 4 -22 7 -1 3 -3 56 -4 118 -3 112 -1
117 32 113 18 -2 31 30 24 59 -5 18 -14 25 -31 25 -22 0 -25 5 -27 35 0 19 -1
43 -2 53 -1 14 -11 17 -55 17 l-54 0 2 -51z"/>
<path d="M12311 3733 c1 -10 1 -35 0 -55 -1 -34 -4 -38 -27 -38 -23 0 -25 -3
-22 -37 2 -21 9 -39 16 -39 7 -1 18 -2 25 -3 9 -1 12 -33 11 -128 -3 -176 8
-193 119 -193 l48 0 -3 43 c-2 29 -8 42 -18 43 -8 1 -21 2 -27 2 -10 2 -13 33
-13 121 l0 119 31 -3 c29 -3 30 -2 27 39 -3 38 -5 41 -30 38 -28 -3 -28 -3
-28 52 l0 56 -56 0 c-47 0 -55 -3 -53 -17z"/>
<path d="M5731 3645 c-93 -29 -138 -108 -128 -226 8 -99 48 -154 129 -178 99
-30 201 9 245 94 19 35 25 147 10 190 -34 102 -144 154 -256 120z m126 -108
c28 -25 38 -90 23 -146 -9 -34 -18 -45 -46 -57 -45 -19 -81 -9 -105 30 -38 63
-15 180 38 192 15 3 33 7 38 9 13 3 25 -3 52 -28z"/>
<path d="M6165 3649 c-134 -38 -161 -296 -39 -378 44 -30 126 -34 167 -7 l27
18 0 -36 c0 -47 -29 -76 -75 -76 -22 0 -43 8 -55 20 -26 26 -130 30 -130 4 0
-29 34 -74 70 -91 50 -24 163 -23 214 2 79 39 81 47 84 305 l2 228 -33 4 c-50
6 -75 -4 -71 -27 2 -18 1 -18 -9 -4 -27 35 -99 53 -152 38z m124 -106 c31 -26
43 -113 22 -156 -43 -86 -152 -54 -153 45 -1 61 2 75 23 102 25 31 75 35 108
9z"/>
<path d="M6886 3645 c-21 -7 -46 -21 -56 -30 -21 -19 -45 -80 -36 -93 2 -4 26
-8 53 -7 26 0 46 3 43 7 -3 3 4 15 14 27 33 36 116 22 116 -20 0 -23 -28 -35
-96 -43 -60 -7 -115 -35 -132 -67 -8 -14 -11 -46 -9 -77 6 -78 37 -107 116
-107 46 0 66 5 90 22 27 21 31 21 39 6 7 -12 25 -17 61 -18 52 -2 75 10 50 25
-10 7 -13 45 -14 157 -1 93 -5 156 -13 169 -26 48 -151 74 -226 49z m135 -227
c6 -57 -34 -109 -78 -102 -7 1 -20 2 -28 3 -9 0 -21 12 -27 26 -14 32 4 54 60
71 50 16 72 16 73 2z"/>
<path d="M7403 3649 c-18 -3 -44 -14 -57 -23 -23 -14 -25 -14 -30 2 -4 13 -16
17 -45 16 -22 -1 -43 -4 -48 -7 -5 -3 -9 -92 -8 -198 l0 -193 53 -1 52 -1 0
137 c0 124 2 137 21 155 30 27 65 28 83 2 13 -18 16 -51 16 -158 l0 -135 48 1
c26 1 50 2 53 3 3 0 5 54 4 119 -1 128 7 167 37 183 28 15 67 3 78 -25 5 -13
9 -62 9 -108 -1 -45 0 -103 0 -129 l1 -45 50 0 50 0 1 51 c4 222 0 279 -19
304 -42 58 -130 70 -187 26 -31 -23 -33 -23 -49 -6 -22 24 -75 39 -113 30z"/>
<path d="M9244 3649 c-76 -22 -119 -107 -112 -224 7 -113 58 -174 151 -179 44
-3 97 10 97 24 0 4 6 10 14 13 15 6 15 -9 1 -71 -10 -42 -91 -56 -125 -22 -15
15 -33 20 -75 20 -59 0 -67 -9 -44 -53 52 -96 264 -99 333 -4 20 26 21 45 24
254 2 143 0 228 -7 232 -5 3 -30 5 -55 3 -39 -3 -44 -6 -41 -25 4 -19 3 -20
-8 -6 -27 35 -99 53 -153 38z m131 -114 c21 -20 31 -54 26 -87 0 -4 -2 -21 -3
-38 -5 -63 -86 -96 -130 -53 -24 25 -37 85 -27 133 14 68 87 93 134 45z"/>
<path d="M10484 3650 c-52 -12 -92 -42 -118 -90 -22 -40 -25 -57 -23 -125 2
-67 7 -87 29 -121 63 -98 229 -112 312 -25 56 58 69 200 26 274 -42 71 -137
107 -226 87z m120 -123 c24 -32 28 -121 7 -159 -25 -48 -95 -58 -134 -19 -26
25 -35 118 -17 162 25 61 104 69 144 16z"/>
<path d="M11585 3646 c-54 -20 -71 -34 -97 -83 -36 -66 -35 -176 2 -242 67
-119 252 -120 318 -3 12 22 22 42 22 46 0 3 -20 6 -45 6 -31 0 -55 -8 -81 -25
-20 -14 -45 -25 -55 -25 -23 0 -66 39 -74 68 l-6 22 130 0 c97 0 131 3 132 13
7 66 -13 138 -50 181 -39 44 -134 65 -196 42z m122 -112 c26 -40 12 -51 -58
-48 -82 2 -78 1 -72 23 15 59 97 74 130 25z"/>
<path d="M12005 3650 c-65 -14 -103 -49 -112 -104 -12 -75 29 -117 142 -145
72 -18 95 -29 95 -45 0 -49 -121 -52 -139 -3 -7 17 -17 21 -60 22 l-53 1 6
-34 c12 -74 99 -120 205 -109 100 11 153 63 146 146 -5 61 -34 84 -143 112
-89 24 -120 49 -83 69 36 19 78 12 101 -17 21 -26 64 -35 103 -20 33 13 -14
93 -68 115 -38 15 -101 21 -140 12z"/>
<path d="M5339 3646 c-5 -3 -4 -396 0 -397 3 -1 27 -2 54 -3 36 -1 47 2 48 14
0 8 1 66 2 128 2 106 4 115 26 133 13 10 35 19 50 19 39 0 46 10 47 63 1 47 1
47 -31 47 -23 0 -43 -9 -65 -30 -38 -36 -40 -36 -35 -10 2 12 -2 23 -8 26 -11
4 -84 12 -88 10z"/>
<path d="M6522 3636 c-7 -13 -7 -370 1 -383 5 -8 69 -11 97 -4 3 0 5 52 5 114
-1 125 10 164 50 172 14 3 36 7 49 10 21 4 23 10 22 55 0 50 0 50 -34 50 -24
0 -42 -9 -64 -30 -16 -16 -31 -30 -32 -30 -2 0 -1 11 2 25 2 14 0 25 -4 26
-53 4 -87 2 -92 -5z"/>
<path d="M7878 3642 c-16 -3 -18 -21 -18 -201 l0 -197 53 1 52 1 2 89 c1 50 2
111 2 138 1 78 56 113 101 65 19 -21 21 -34 20 -133 -2 -178 -7 -160 50 -161
l50 0 1 45 c0 25 1 84 1 131 0 46 4 92 9 102 23 43 88 46 106 5 5 -12 9 -79 8
-149 0 -79 4 -129 10 -131 5 -2 28 -3 50 -3 l40 1 3 140 c3 166 -1 196 -34
232 -20 22 -36 28 -82 31 -49 3 -62 0 -91 -22 -19 -14 -37 -22 -40 -18 -31 44
-130 57 -174 22 -30 -24 -41 -25 -33 -5 3 8 0 15 -7 16 -7 0 -23 1 -37 2 -14
2 -33 1 -42 -1z"/>
<path d="M8527 3642 c-15 -3 -17 -24 -17 -201 l0 -197 53 1 52 0 1 198 c1 108
-1 197 -5 198 -26 3 -70 3 -84 1z"/>
<path d="M8738 3642 c-16 -2 -28 -6 -29 -10 -1 -10 -1 -287 0 -342 l1 -45 50
-1 c38 0 50 3 51 15 1 9 3 63 4 121 3 139 2 133 25 158 28 30 85 30 101 0 7
-14 11 -70 11 -155 -1 -73 2 -134 6 -134 4 -1 28 -2 55 -3 l47 -2 0 160 c0
143 -2 165 -20 194 -36 58 -129 71 -194 27 -33 -22 -36 -23 -36 -6 0 20 -26
28 -72 23z"/>
<path d="M10809 3645 c-1 0 -2 -89 -3 -197 -1 -129 2 -198 9 -199 62 -8 95 -4
95 10 1 9 2 72 3 139 2 117 3 125 26 143 28 23 74 25 95 3 16 -15 17 -28 17
-221 0 -40 4 -74 7 -74 4 -1 28 -2 55 -3 l47 -2 0 156 c0 217 -21 255 -142
247 -44 -2 -64 -9 -83 -27 l-25 -23 0 21 c0 12 -3 22 -7 23 -6 1 -84 4 -94 4z"/>
<path d="M3797 2329 c-133 -45 -223 -138 -261 -269 -14 -47 -16 -110 -14 -450
l3 -395 31 -65 c52 -107 128 -176 240 -216 46 -16 198 -17 2839 -19 1535 0
2813 2 2842 6 158 21 304 163 328 320 4 24 7 207 7 406 0 396 -3 425 -60 513
-59 90 -131 145 -229 173 -45 14 -389 15 -2860 15 -2766 1 -2809 0 -2866 -19z
m5728 -41 c60 -19 122 -61 160 -107 25 -30 65 -99 73 -125 4 -12 8 -195 9
-408 4 -372 3 -389 -18 -450 -35 -105 -116 -185 -224 -223 -47 -16 -216 -17
-2836 -18 -1532 0 -2808 4 -2835 8 -135 20 -257 140 -283 278 -4 26 -8 214 -7
419 l1 373 26 56 c48 103 134 177 237 204 37 9 646 12 2842 13 2764 0 2796 0
2855 -20z"/>
<path d="M4001 1961 c-38 -38 0 -85 59 -74 52 9 67 50 28 77 -30 21 -64 20
-87 -3z"/>
<path d="M5719 1951 c-27 -27 -30 -37 -28 -78 3 -46 2 -48 -26 -53 -22 -4 -29
-11 -32 -32 -3 -25 -1 -28 27 -28 34 0 31 23 31 -221 l0 -137 37 2 37 1 0 175
0 175 35 5 c34 5 36 8 31 51 0 5 -9 9 -18 8 -46 -4 -51 0 -47 38 4 42 11 51
44 56 20 3 25 10 25 33 0 27 -3 29 -43 32 -36 3 -47 -1 -73 -27z"/>
<path d="M7526 1971 c-2 -3 -3 -48 -3 -99 0 -51 -3 -95 -7 -99 -3 -3 -6 -1 -6
6 0 21 -79 49 -127 45 -87 -7 -142 -66 -161 -171 -20 -111 29 -223 111 -256
41 -17 119 -6 157 21 31 23 41 27 39 15 -4 -25 4 -33 31 -33 l30 0 1 68 c0 72
0 389 -1 462 0 43 -1 45 -30 46 -17 1 -32 -1 -34 -5z m-57 -227 c77 -54 70
-238 -10 -279 -36 -19 -63 -19 -99 0 -79 41 -90 210 -18 270 35 30 92 33 127
9z"/>
<path d="M8356 1961 c-23 -26 -17 -53 15 -68 34 -16 85 0 92 28 13 48 -72 79
-107 40z"/>
<path d="M8154 1925 c-3 -7 -4 -16 -3 -21 1 -5 1 -26 0 -46 -1 -32 -4 -37 -28
-40 -22 -2 -27 -8 -28 -30 -2 -24 2 -28 27 -28 32 0 29 15 29 -170 0 -69 5
-137 10 -151 12 -30 43 -47 79 -43 14 1 32 3 40 3 11 1 16 11 15 31 0 26 -4
30 -27 30 -15 0 -30 4 -33 10 -3 5 -7 72 -7 147 l-2 138 35 5 c29 4 34 9 35
33 0 19 -5 27 -15 26 -47 -4 -50 0 -53 58 l-3 57 -33 1 c-19 1 -36 -4 -38 -10z"/>
<path d="M4282 1822 c-38 -12 -93 -63 -113 -106 -25 -55 -25 -166 0 -221 36
-81 112 -116 216 -101 53 8 102 46 121 93 22 51 18 63 -19 63 -27 0 -36 -6
-51 -35 -25 -46 -37 -55 -80 -60 -86 -11 -132 51 -124 166 6 73 31 122 71 135
62 20 128 -8 141 -60 4 -18 12 -22 38 -20 18 1 36 2 40 3 13 2 -23 88 -45 108
-41 38 -130 53 -195 35z"/>
<path d="M4737 1816 c-21 -8 -47 -22 -57 -31 -17 -16 -19 -15 -22 7 -2 18 -9
23 -35 24 -38 0 -34 31 -34 -266 -1 -342 -3 -317 29 -316 15 1 32 4 37 8 7 4
11 45 10 101 l-1 93 35 -23 c25 -17 48 -23 89 -23 93 0 151 48 178 146 13 49
9 156 -7 187 -43 84 -138 124 -222 93z m125 -87 c39 -46 46 -155 14 -218 -18
-34 -62 -61 -100 -61 -70 0 -110 53 -111 145 0 95 22 143 76 163 32 12 100 -4
121 -29z"/>
<path d="M5138 1809 c-128 -66 -147 -297 -32 -385 39 -30 120 -41 179 -25 49
13 92 55 110 107 l13 39 -36 3 c-20 2 -38 -1 -40 -7 -2 -5 -13 -25 -25 -43
-28 -40 -82 -56 -129 -37 -81 33 -91 215 -16 280 19 17 30 21 71 22 36 1 67
-18 84 -51 16 -32 23 -37 53 -37 32 0 35 3 31 25 -7 53 -40 95 -91 117 -41 17
-131 13 -172 -8z"/>
<path d="M5985 1816 c-144 -63 -161 -324 -27 -403 81 -48 208 -25 254 45 37
56 47 95 45 170 -3 89 -37 151 -100 181 -50 24 -126 27 -172 7z m146 -67 c59
-31 65 -204 9 -268 -23 -28 -88 -38 -128 -22 -94 39 -89 264 6 300 28 10 84 6
113 -10z"/>
<path d="M6930 1814 c-19 -8 -42 -22 -52 -31 -17 -15 -18 -14 -18 9 0 23 -4
26 -35 26 l-35 0 0 -208 0 -207 37 1 37 1 2 142 c1 126 3 144 22 171 25 34 83
53 124 40 40 -14 50 -52 51 -210 l2 -143 35 0 35 0 0 170 c0 161 -1 172 -23
202 -36 50 -115 66 -182 37z"/>
<path d="M7815 1824 c-71 -17 -115 -58 -115 -108 0 -23 4 -26 35 -26 23 0 35
5 35 14 0 32 36 60 81 62 74 3 120 -35 104 -85 -6 -19 -24 -25 -120 -36 -62
-8 -132 -40 -147 -68 -31 -58 -4 -145 53 -174 50 -26 151 -11 196 30 l22 20
10 -26 c6 -16 20 -27 38 -31 49 -10 67 -2 70 31 2 25 -1 29 -20 29 -22 -1 -22
2 -27 150 -5 165 -12 183 -70 206 -29 12 -115 18 -145 12z m143 -251 c-1 -21
-6 -48 -11 -60 -12 -27 -82 -63 -122 -63 -32 0 -75 35 -75 60 0 29 39 70 68
71 22 1 128 22 140 28 1 0 2 -16 0 -36z"/>
<path d="M8640 1814 c-81 -35 -114 -96 -114 -209 0 -119 35 -178 123 -207 106
-36 217 15 250 115 29 86 14 206 -30 253 -54 58 -158 80 -229 48z m152 -71
c35 -31 46 -65 43 -133 -2 -64 -20 -115 -48 -139 -41 -34 -132 -21 -160 23
-48 73 -30 215 33 259 28 19 106 14 132 -10z"/>
<path d="M9147 1815 c-21 -7 -47 -21 -58 -31 -18 -16 -19 -16 -19 9 0 24 -3
26 -32 24 l-33 -3 0 -204 0 -205 33 -3 c21 -2 32 1 33 10 1 7 2 67 3 133 1 71
7 133 14 151 36 87 179 84 183 -3 1 -16 2 -86 3 -158 l1 -130 38 -2 37 -3 -1
157 c0 173 -9 215 -51 246 -33 24 -101 30 -151 12z"/>
<path d="M4009 1781 c-1 -40 -1 -196 0 -309 l1 -73 37 3 38 3 0 203 c1 111 -2
203 -5 203 -3 1 -20 2 -37 4 -31 2 -33 0 -34 -34z"/>
<path d="M6343 1646 c2 -116 7 -178 15 -194 34 -61 132 -80 203 -40 22 12 39
26 40 32 1 6 4 0 8 -14 5 -19 14 -26 39 -28 l32 -3 0 209 0 210 -35 0 c-34 0
-35 -1 -36 -41 -2 -157 -7 -236 -17 -259 -13 -31 -65 -68 -90 -63 -10 2 -25 4
-34 4 -10 1 -25 12 -34 26 -13 20 -16 53 -16 180 l0 156 -39 -3 -38 -2 2 -170z"/>
<path d="M8367 1812 c-2 -4 -3 -97 -3 -207 l1 -200 38 -3 c30 -3 37 0 38 15 0
10 1 104 2 208 l0 190 -36 2 c-21 0 -38 -2 -40 -5z"/>
<path d="M5474 1469 c-21 -23 -20 -25 3 -51 29 -32 114 -15 113 23 -1 49 -80
68 -116 28z"/>
</g>
</svg>
