<?xml version="1.0" standalone="no"?>
<!DOCTYPE svg PUBLIC "-//W3C//DTD SVG 20010904//EN"
 "http://www.w3.org/TR/2001/REC-SVG-20010904/DTD/svg10.dtd">
<svg version="1.0" xmlns="http://www.w3.org/2000/svg"
 width="1351.000000pt" height="1351.000000pt" viewBox="0 0 1351.000000 1351.000000"
 preserveAspectRatio="xMidYMid meet">
<metadata>
Created by potrace 1.14, written by Peter Selinger 2001-2017
</metadata>
<g transform="translate(0.000000,1351.000000) scale(0.100000,-0.100000)"
fill="#000000" stroke="none">
<path d="M11030 11543 c-19 -2 -60 -8 -90 -14 -30 -6 -66 -12 -80 -14 -56 -8
-217 -68 -298 -110 -136 -70 -286 -194 -350 -286 -9 -13 -18 -26 -22 -29 -14
-12 -71 -110 -98 -170 -49 -106 -83 -230 -100 -360 -13 -106 -5 -330 17 -460
24 -137 25 -143 83 -310 96 -278 285 -548 522 -746 l49 -41 -74 14 c-244 44
-405 -7 -468 -147 -49 -108 -3 -191 129 -235 59 -20 220 -26 317 -12 63 9 209
53 241 74 13 8 25 13 27 11 1 -2 -26 -70 -61 -151 -35 -82 -64 -152 -64 -157
0 -4 65 -7 143 -6 129 1 143 -1 139 -16 -6 -25 35 -172 67 -236 51 -105 60
-117 129 -192 l69 -75 112 -2 c61 0 111 0 111 1 0 2 -25 20 -55 41 -85 58
-187 173 -233 263 -36 68 -72 173 -72 207 0 7 85 9 259 8 l259 -1 -17 36 c-9
21 -49 102 -89 181 -40 79 -71 146 -68 148 2 2 23 -5 47 -16 125 -57 336 -108
429 -105 106 4 185 49 216 123 19 44 22 133 5 183 -21 64 -92 117 -175 132
-48 9 -186 9 -212 0 -10 -3 10 22 46 57 198 193 343 409 437 654 193 496 176
937 -46 1257 -91 131 -234 260 -378 340 -98 55 -306 128 -408 142 -23 4 -52 9
-65 12 -30 6 -280 11 -330 7z m399 -143 c339 -69 612 -267 745 -538 27 -55 56
-127 61 -152 1 -5 9 -37 21 -90 10 -43 14 -313 4 -355 -4 -22 -11 -56 -14 -75
-11 -77 -19 -109 -52 -217 -148 -489 -478 -863 -923 -1045 -42 -17 -80 -34
-84 -38 -5 -4 15 -17 45 -30 l53 -22 75 -155 c41 -85 76 -158 78 -162 1 -4
-121 -8 -273 -8 -151 0 -275 2 -275 4 0 3 7 19 14 36 8 18 43 97 76 177 34 80
64 148 66 151 2 4 -31 28 -74 55 -454 279 -726 641 -827 1099 -30 134 -39 220
-38 365 2 423 184 735 528 907 224 112 529 148 794 93z m577 -2458 c45 -24 61
-77 39 -129 -16 -38 -38 -51 -96 -56 -36 -3 -166 18 -229 37 -36 11 -158 55
-189 69 -31 13 -33 15 -15 25 25 13 215 59 279 67 28 4 51 8 52 9 7 6 141 -12
159 -22z m-1451 -42 c80 -13 236 -63 232 -74 -2 -5 -19 -18 -38 -28 -140 -72
-454 -85 -518 -20 -13 12 -12 18 4 48 22 41 68 71 121 80 21 3 40 7 41 8 4 4
96 -4 158 -14z"/>
<path d="M6719 10012 c-15 -3 -17 -48 -16 -508 l0 -504 58 0 59 0 1 33 c1 39
1 934 0 962 -1 17 -8 20 -43 20 -24 1 -50 -1 -59 -3z"/>
<path d="M5920 9807 c-25 -12 -46 -22 -47 -22 -2 -1 54 -132 122 -291 69 -159
155 -359 192 -444 36 -85 69 -159 73 -163 5 -6 67 16 108 39 3 2 -107 262
-325 763 -32 74 -63 136 -68 137 -6 1 -30 -7 -55 -19z"/>
<path d="M7527 9798 c-8 -18 -65 -150 -127 -293 -62 -143 -132 -307 -157 -365
-24 -58 -55 -129 -69 -159 -14 -29 -24 -54 -22 -55 22 -15 105 -43 110 -37 4
4 45 94 91 201 46 107 91 211 100 230 47 104 198 462 195 465 -4 3 -100 45
-104 45 -2 0 -10 -15 -17 -32z"/>
<path d="M5226 9308 l-36 -43 38 -35 c22 -19 87 -78 147 -130 59 -52 113 -100
119 -106 6 -6 56 -50 111 -99 55 -49 102 -91 105 -94 3 -4 53 -49 113 -100
l107 -93 40 43 39 44 -37 35 c-20 19 -70 64 -111 100 -40 36 -86 76 -101 90
-15 14 -56 50 -91 81 -35 31 -138 122 -229 203 -91 80 -168 146 -172 146 -3 0
-22 -19 -42 -42z"/>
<path d="M8199 9307 c-26 -23 -75 -67 -109 -97 -35 -30 -75 -66 -90 -80 -33
-30 -117 -105 -310 -275 -168 -149 -170 -151 -170 -162 0 -5 17 -26 38 -46
l38 -38 24 21 c25 21 120 106 180 160 19 18 64 57 100 88 36 32 88 78 115 103
28 26 85 78 129 115 43 38 104 92 135 121 l56 52 -40 40 c-21 23 -42 41 -45
41 -3 0 -26 -19 -51 -43z"/>
<path d="M4873 8722 c-13 -26 -23 -51 -23 -55 0 -4 184 -99 410 -212 l410
-205 25 50 c14 27 25 52 25 55 0 4 -815 415 -822 415 -2 0 -13 -22 -25 -48z"/>
<path d="M8208 8565 l-408 -205 12 -27 c7 -16 19 -40 28 -54 l15 -27 412 205
412 206 -27 53 c-14 30 -29 54 -32 53 -3 0 -188 -92 -412 -204z"/>
<path d="M937 7858 c-157 -22 -305 -126 -374 -262 -59 -116 -56 -63 -58 -1141
-1 -739 2 -1007 11 -1056 37 -198 182 -347 385 -395 13 -3 108 -8 210 -10
l186 -4 -12 53 c-23 102 2 232 70 368 l33 66 -95 48 c-154 78 -244 177 -259
283 -15 112 108 276 290 385 l63 39 -18 48 c-72 190 6 377 203 489 164 92 367
121 500 71 85 -31 170 -99 225 -177 l47 -68 81 40 c84 42 107 48 192 48 70 -1
133 -33 190 -98 l46 -52 51 39 c181 139 422 177 688 109 143 -37 325 -121 460
-212 31 -22 59 -39 62 -39 2 0 3 233 2 518 l-2 517 -26 68 c-14 37 -38 85 -53
107 -70 101 -189 183 -304 210 -41 10 -362 13 -1401 14 -741 0 -1368 -2 -1393
-6z"/>
<path d="M5430 7859 c-47 -3 -108 -13 -137 -23 -71 -24 -160 -83 -211 -141
-50 -57 -107 -170 -118 -235 -10 -60 -12 -1990 -1 -2059 13 -90 68 -194 140
-266 70 -69 137 -108 225 -130 84 -20 2803 -20 2875 0 182 52 323 207 356 391
7 39 10 398 10 1039 -1 931 -2 984 -20 1055 -49 192 -209 336 -404 366 -50 7
-243 10 -249 3 -2 -2 -7 -31 -10 -64 -13 -114 -17 -140 -36 -221 -70 -297
-295 -581 -553 -700 l-56 -25 -7 -57 c-5 -31 -8 -59 -9 -62 -1 -3 -5 -30 -9
-60 -8 -57 -13 -91 -20 -137 -3 -16 -7 -47 -10 -70 -10 -70 -18 -127 -21 -143
-2 -8 -4 -22 -4 -30 -1 -13 -52 -15 -403 -14 -222 1 -407 2 -411 3 -4 0 -7 7
-6 14 3 11 -8 119 -16 171 -2 12 -6 41 -9 66 -11 92 -28 226 -31 245 -2 11 -4
32 -4 46 -1 21 -10 29 -53 48 -145 62 -309 198 -395 326 -111 165 -195 436
-196 633 0 31 -2 32 -41 33 -23 0 -50 1 -61 2 -11 1 -58 0 -105 -4z m1725
-1731 c4 -3 7 -28 8 -55 l1 -48 -402 -3 c-444 -3 -404 -8 -404 53 0 8 0 25 1
38 l1 22 394 0 c217 0 397 -3 401 -7z m10 -280 l0 -58 -402 0 c-315 0 -403 3
-404 13 -1 22 -2 72 0 88 1 14 43 16 404 16 l402 0 0 -59z m-3 -180 c2 -7 4
-33 4 -58 l-1 -45 -400 0 -400 0 -3 58 -3 57 399 0 c311 0 401 -3 404 -12z
m-252 -277 l0 -59 -155 0 c-85 1 -155 5 -156 9 0 5 -1 27 -1 49 0 22 1 45 1
50 1 6 60 10 156 10 l155 0 0 -59z"/>
<path d="M5848 7862 l-67 -3 5 -52 c19 -239 73 -400 189 -563 87 -121 239
-237 388 -293 15 -6 27 -18 28 -28 0 -10 2 -25 4 -33 4 -19 14 -94 20 -140 9
-77 18 -146 21 -163 2 -10 6 -44 9 -75 8 -79 10 -91 17 -97 3 -4 58 -7 122 -8
110 -2 116 -1 117 18 0 11 1 153 1 317 l0 296 66 53 65 52 -84 24 c-46 12 -93
25 -104 28 -60 13 -278 75 -283 79 -2 3 6 10 19 15 13 5 92 37 174 71 83 34
174 71 203 82 29 12 51 22 50 23 -2 2 -88 28 -193 60 -104 31 -192 59 -194 61
-2 2 7 14 21 26 13 13 71 66 127 118 57 52 106 97 110 100 3 3 11 12 18 20 10
13 -34 15 -385 15 -219 0 -427 -1 -464 -3z"/>
<path d="M6886 7860 c-8 -3 -64 -53 -125 -111 -98 -94 -108 -107 -88 -112 12
-3 96 -26 187 -52 91 -25 200 -56 244 -68 l78 -23 -218 -88 c-121 -49 -225
-94 -232 -101 -10 -9 20 -21 140 -54 84 -24 166 -46 182 -50 l30 -7 -50 -39
c-27 -22 -86 -70 -130 -108 l-82 -67 0 -285 c1 -283 1 -285 22 -286 80 -2 197
-2 200 2 2 2 7 31 11 64 3 32 8 62 10 65 1 3 6 34 9 70 4 36 9 72 11 80 4 17
14 77 20 130 12 96 16 125 18 125 128 43 314 180 405 297 80 104 163 271 179
358 2 14 8 41 13 60 21 79 30 200 16 201 -72 3 -840 3 -850 -1z"/>
<path d="M9829 7858 c-194 -28 -355 -172 -407 -363 -18 -67 -19 -113 -17
-1085 1 -993 2 -1016 22 -1072 47 -134 138 -239 257 -296 71 -35 170 -57 224
-49 20 2 129 38 242 79 1286 469 2021 1129 1943 1745 -27 216 -151 443 -362
666 -107 112 -256 240 -379 324 l-83 57 -698 1 c-384 0 -718 -3 -742 -7z"/>
<path d="M11548 7860 c-25 -5 -19 -11 71 -82 312 -248 523 -530 607 -813 23
-77 27 -110 28 -225 0 -74 -2 -151 -5 -170 -35 -187 -111 -352 -244 -528 -223
-296 -619 -589 -1162 -859 -215 -108 -364 -173 -392 -173 -12 0 -21 -4 -21 -9
0 -4 482 -8 1073 -8 1160 0 1118 -2 1235 54 74 36 179 141 214 215 57 118 56
93 56 1166 0 1046 1 1039 -47 1147 -63 142 -219 260 -376 282 -50 7 -1001 10
-1037 3z"/>
<path d="M1855 6719 c-241 -47 -387 -172 -373 -318 6 -58 45 -142 87 -188 l29
-32 -93 -45 c-174 -83 -288 -175 -320 -260 -16 -41 -16 -46 1 -81 32 -67 183
-161 349 -216 39 -13 72 -25 73 -26 2 -1 -20 -36 -49 -79 -61 -91 -111 -197
-129 -273 -13 -57 -9 -156 9 -188 10 -20 22 -20 1117 -20 626 0 1128 4 1158 9
28 5 83 25 121 43 162 77 275 247 278 417 1 38 5 68 8 68 17 0 97 -64 117 -94
95 -140 41 -382 -125 -566 -103 -114 -256 -201 -395 -225 -137 -24 -302 -25
-425 -1 -170 34 -327 88 -500 172 -117 57 -163 70 -163 45 0 -14 -137 -111
-210 -149 -189 -97 -354 -96 -493 5 -51 38 -125 128 -154 187 -14 30 -21 36
-38 31 -36 -11 -152 -18 -189 -11 -19 4 -49 19 -66 33 -26 21 -43 26 -96 28
-35 2 -66 -1 -69 -5 -10 -16 57 -102 102 -130 61 -39 110 -52 199 -54 l71 -1
41 -51 c185 -234 443 -285 734 -145 46 22 111 60 145 85 35 25 65 46 68 46 3
0 38 -15 78 -34 125 -57 333 -131 428 -152 124 -26 187 -35 265 -38 313 -9
546 75 734 264 147 148 223 313 223 485 0 104 -18 166 -68 237 l-34 46 49 61
c86 107 137 248 124 343 -3 18 -6 44 -8 58 -16 110 -143 278 -277 367 -22 14
-39 29 -39 33 0 4 -6 10 -14 13 -11 4 -13 -10 -10 -76 3 -73 5 -84 26 -97 47
-29 136 -131 164 -187 25 -49 29 -70 29 -138 0 -96 -27 -163 -105 -259 -44
-54 -105 -111 -118 -111 -2 0 -5 159 -7 354 l-2 355 -34 29 c-107 91 -324 214
-451 256 -328 109 -620 21 -799 -241 -36 -53 -52 -70 -47 -50 5 16 -13 112
-30 159 -30 84 -79 138 -133 146 -65 10 -179 -47 -279 -140 -33 -31 -62 -54
-64 -52 -1 2 -9 27 -16 54 -7 28 -28 79 -46 115 -82 158 -200 220 -359 189z"/>
<path d="M2523 4529 c-183 -33 -292 -202 -222 -346 49 -102 186 -172 315 -160
169 16 290 136 278 275 -14 153 -191 263 -371 231z m181 -124 c82 -39 113
-126 68 -194 -55 -85 -195 -113 -297 -60 -141 72 -122 216 36 269 56 19 134
13 193 -15z"/>
<path d="M1873 4258 c-159 -59 -209 -242 -93 -341 47 -40 84 -53 168 -56 78
-3 146 19 199 64 119 102 79 278 -75 335 -65 25 -131 24 -199 -2z m187 -95
c41 -25 60 -56 60 -96 0 -73 -89 -125 -193 -113 -63 8 -104 37 -112 79 -11 60
28 118 98 144 39 15 113 8 147 -14z"/>
<path d="M1340 4078 c-94 -24 -143 -77 -143 -157 -1 -105 76 -164 216 -165 70
-1 90 3 132 24 127 66 120 226 -14 285 -41 18 -144 25 -191 13z m168 -102 c48
-25 48 -91 0 -117 -48 -26 -181 -16 -207 15 -16 19 -20 63 -8 81 30 40 154 52
215 21z"/>
<path d="M850 3918 c-23 -11 -48 -32 -57 -45 -22 -33 -20 -98 3 -125 70 -78
243 -69 289 16 61 112 -102 219 -235 154z"/>
<path d="M9690 3702 c-77 -23 -122 -62 -154 -132 -26 -59 -28 -225 -3 -281 44
-97 115 -143 224 -142 57 0 82 5 120 24 54 28 99 86 108 139 l6 36 -52 -1
c-48 0 -53 -2 -67 -31 -29 -62 -126 -87 -181 -46 -48 36 -65 78 -64 162 0 64
4 82 26 117 38 61 105 79 173 47 21 -10 38 -28 45 -48 10 -28 15 -31 48 -29
20 1 44 2 54 2 38 2 -1 104 -55 145 -53 39 -163 58 -228 38z"/>
<path d="M4946 3680 c-3 -8 -4 -129 -4 -267 l1 -253 56 0 56 0 -1 263 c-1 144
-2 265 -3 268 0 3 -24 5 -51 5 -36 0 -51 -5 -54 -16z"/>
<path d="M7662 3682 c-12 -8 -22 -23 -22 -33 0 -47 73 -66 111 -28 18 18 19
23 6 42 -19 28 -67 38 -95 19z"/>
<path d="M9169 3695 c-1 0 -2 -120 -3 -267 l-1 -268 52 0 c44 0 53 3 53 18 1
14 1 409 0 493 0 27 4 26 -101 24z"/>
<path d="M10510 3428 l0 -268 53 0 52 0 -1 263 c-1 144 -2 265 -3 268 0 3 -23
5 -51 5 l-50 -1 0 -267z"/>
<path d="M10709 3680 c0 -15 0 -381 1 -472 l0 -48 53 0 52 0 -1 263 c-1 144
-2 265 -3 268 0 3 -23 5 -51 5 -38 0 -50 -4 -51 -16z"/>
<path d="M11776 3679 c-26 -21 -28 -38 -6 -64 11 -13 24 -16 54 -12 43 6 59
22 50 52 -8 26 -6 24 -42 35 -25 7 -36 4 -56 -11z"/>
<path d="M5615 3661 c-3 -2 -5 -28 -5 -56 0 -48 -2 -52 -22 -51 -20 1 -23 -5
-26 -36 -3 -35 -1 -38 22 -38 25 0 26 -3 27 -57 0 -32 0 -86 -1 -121 -2 -77
14 -129 43 -138 12 -4 45 -8 74 -9 l53 -2 0 44 c0 41 -1 43 -30 43 l-30 0 0
120 0 120 30 0 c28 0 30 2 30 38 0 35 -2 38 -27 38 -27 -1 -28 2 -33 54 l-5
55 -48 1 c-26 0 -50 -2 -52 -5z"/>
<path d="M7425 3662 c-3 -3 -5 -29 -5 -57 0 -50 -1 -52 -25 -50 -23 3 -25 0
-25 -36 0 -35 3 -39 25 -39 l25 0 0 -129 c0 -71 4 -141 9 -154 11 -28 36 -39
96 -42 57 -3 65 2 65 46 0 37 -2 39 -30 39 -33 0 -31 -8 -31 135 0 110 -2 105
32 105 29 0 30 2 27 38 -3 34 -6 37 -30 35 -27 -2 -28 -1 -28 52 0 30 -3 55
-7 56 -39 5 -93 5 -98 1z"/>
<path d="M12383 3661 c-6 -3 -9 -27 -8 -53 1 -34 -2 -48 -12 -49 -7 -1 -18 -2
-25 -3 -7 0 -13 -17 -13 -38 -1 -33 2 -38 22 -38 28 0 25 13 27 -141 2 -133
15 -178 54 -180 9 -1 37 -2 62 -3 l45 -1 3 43 c3 41 2 42 -27 42 l-31 0 0 120
0 120 30 0 c28 0 30 2 30 38 0 36 -2 39 -27 37 -27 -1 -28 1 -33 54 l-5 55
-41 2 c-23 1 -46 -1 -51 -5z"/>
<path d="M5339 3562 c-15 -2 -35 -12 -45 -23 -20 -23 -39 -25 -30 -4 3 8 0 16
-7 16 -39 5 -83 4 -92 -2 -8 -6 -12 -289 -6 -376 1 -9 19 -13 56 -13 l55 0 -1
108 c0 59 0 120 0 135 1 34 41 77 67 72 11 -2 26 -4 36 -4 26 -1 34 -47 33
-183 l-1 -128 56 0 56 0 -2 158 c-1 86 -6 169 -12 184 -20 48 -82 72 -163 60z"/>
<path d="M5945 3563 c-32 -8 -84 -51 -101 -85 -36 -69 -30 -190 13 -256 55
-85 183 -102 271 -36 27 21 62 70 62 89 0 3 -24 5 -53 5 -41 0 -58 -5 -72 -20
-12 -13 -31 -20 -56 -20 -30 0 -42 6 -58 29 -39 55 -34 58 102 58 68 0 128 3
134 6 17 11 5 97 -20 146 -37 73 -127 107 -222 84z m121 -110 c7 -10 14 -26
14 -35 0 -16 -10 -18 -75 -18 -41 0 -75 2 -75 5 0 14 31 64 42 69 23 10 80 -3
94 -21z"/>
<path d="M6430 3559 c-14 -5 -36 -22 -48 -37 l-24 -27 5 28 c2 15 1 28 -2 28
-3 1 -25 2 -48 3 -32 2 -44 -2 -47 -13 -2 -9 -4 -98 -4 -198 l0 -183 54 0 54
0 0 114 c0 63 4 126 9 139 10 26 62 53 86 43 20 -7 32 23 27 72 -4 41 -17 47
-62 31z"/>
<path d="M6726 3560 c-15 -5 -37 -17 -47 -26 -10 -9 -20 -14 -20 -11 -1 4 -2
13 -3 19 -2 18 -106 19 -107 1 0 -7 0 -65 0 -128 0 -63 0 -146 0 -185 l1 -70
53 0 52 0 0 135 c1 121 3 137 20 154 30 29 80 33 101 9 15 -16 18 -40 19 -159
l0 -140 54 3 55 3 -1 158 c-1 166 -6 194 -47 221 -29 18 -95 27 -130 16z"/>
<path d="M7066 3556 c-21 -8 -43 -21 -48 -28 -19 -27 -38 -79 -33 -88 10 -16
105 -12 105 4 0 30 64 53 101 35 21 -11 30 -46 15 -57 -6 -5 -42 -15 -81 -21
-93 -16 -122 -30 -140 -67 -24 -51 -16 -124 18 -158 39 -39 132 -40 182 -1 32
23 33 24 38 5 4 -17 14 -20 62 -20 51 0 56 2 49 18 -4 9 -10 85 -13 167 -6
160 -13 183 -60 206 -41 18 -150 21 -195 5z m148 -242 c-3 -47 -38 -84 -78
-84 -38 0 -51 9 -58 38 -7 27 13 50 50 58 15 3 38 10 52 14 14 5 28 9 31 9 3
1 5 -15 3 -35z"/>
<path d="M7932 3548 c-26 -13 -55 -37 -70 -61 -23 -34 -27 -53 -29 -120 -2
-91 15 -136 66 -180 44 -37 115 -50 185 -35 114 24 170 143 135 283 -29 114
-171 170 -287 113z m140 -79 c40 -22 61 -115 38 -175 -15 -37 -38 -53 -80 -53
-61 0 -90 38 -90 116 0 57 17 93 50 110 31 16 55 16 82 2z"/>
<path d="M8474 3560 c-17 -6 -37 -17 -44 -25 -16 -19 -31 -20 -24 -1 6 17 -10
23 -61 22 l-40 -1 -3 -198 -2 -197 54 0 55 0 -1 124 c0 143 4 161 41 180 30
16 46 16 76 -1 20 -11 24 -56 25 -265 l0 -38 53 0 53 0 -1 164 c-1 173 -8 201
-54 225 -29 16 -93 21 -127 11z"/>
<path d="M8814 3555 c-34 -14 -59 -40 -72 -75 -15 -40 -5 -50 48 -50 39 0 49
4 53 20 10 37 90 47 117 15 14 -17 -3 -54 -25 -56 -8 -1 -18 -2 -22 -3 -5 -1
-34 -5 -65 -10 -42 -5 -65 -15 -87 -35 -76 -71 -32 -207 70 -215 41 -4 108 18
124 41 11 14 12 14 18 -6 4 -18 12 -21 60 -21 59 0 76 10 52 30 -12 10 -15 40
-13 154 1 162 -4 179 -64 206 -47 21 -150 24 -194 5z m153 -237 c-2 -18 -7
-40 -12 -49 -21 -35 -89 -51 -113 -27 -16 16 -15 53 2 67 12 10 83 34 118 40
4 0 6 -14 5 -31z"/>
<path d="M10165 3559 c-75 -28 -116 -97 -118 -200 -3 -135 77 -216 207 -212
115 4 180 79 180 208 1 132 -60 204 -178 211 -34 2 -74 -1 -91 -7z m110 -89
c58 -22 73 -154 24 -206 -19 -20 -31 -24 -63 -22 -56 4 -86 48 -82 121 5 95
49 134 121 107z"/>
<path d="M10985 3551 c-86 -40 -123 -168 -84 -289 30 -91 126 -137 227 -107
51 16 94 53 111 98 l11 27 -54 0 c-40 0 -57 -5 -71 -20 -21 -23 -73 -27 -96
-7 -19 15 -41 65 -31 70 4 3 60 4 125 4 64 0 120 3 123 6 4 3 6 26 6 49 -3
144 -138 229 -267 169z m133 -91 c12 -12 22 -30 22 -40 0 -18 -7 -20 -68 -20
-38 0 -71 3 -75 6 -10 10 14 51 37 62 33 17 60 14 84 -8z"/>
<path d="M11392 3553 c-119 -58 -126 -295 -12 -371 29 -20 45 -23 92 -20 38 3
65 11 79 24 l22 19 -6 -44 c-6 -51 -23 -71 -63 -76 -30 -3 -74 13 -74 27 0 4
-27 8 -60 8 -67 0 -71 -6 -41 -56 28 -45 79 -66 159 -63 37 1 79 6 94 11 41
14 76 55 83 98 5 31 8 256 6 416 -1 31 -2 31 -48 29 -35 -1 -48 -6 -54 -21 -4
-10 -8 -13 -8 -6 -1 17 -62 42 -103 42 -18 0 -48 -8 -66 -17z m153 -105 c27
-32 32 -106 9 -153 -20 -43 -69 -57 -109 -31 -55 36 -49 177 8 203 33 16 69 8
92 -19z"/>
<path d="M12030 3557 c-36 -17 -57 -38 -69 -70 -19 -51 -15 -57 37 -57 42 0
50 3 60 25 11 23 19 28 57 28 36 0 45 -4 54 -22 15 -28 -7 -49 -59 -56 -54 -7
-111 -22 -126 -32 -46 -33 -58 -124 -25 -179 20 -32 59 -51 99 -48 12 1 31 2
41 3 11 0 33 12 49 26 29 24 30 24 35 5 4 -17 14 -20 62 -20 51 0 56 2 49 18
-5 9 -11 85 -14 167 -3 83 -9 157 -13 166 -4 8 -22 24 -40 34 -38 23 -158 30
-197 12z m148 -233 c4 -51 -33 -93 -83 -94 -36 0 -55 15 -55 46 0 33 29 49
130 73 3 0 7 -11 8 -25z"/>
<path d="M12685 3555 c-62 -29 -91 -70 -103 -147 -10 -66 0 -127 30 -180 65
-116 251 -107 314 14 8 15 14 29 14 33 0 3 -24 5 -53 5 -40 0 -57 -5 -70 -20
-17 -20 -71 -27 -93 -12 -15 10 -34 47 -34 66 0 13 16 15 98 15 53 -1 112 -1
129 0 l33 1 -6 53 c-8 81 -41 138 -94 165 -51 25 -120 28 -165 7z m110 -81
c18 -7 47 -58 38 -68 -4 -3 -37 -6 -75 -6 -60 0 -68 2 -68 19 0 38 63 71 105
55z"/>
<path d="M7649 3545 c0 -5 -1 -94 -2 -198 l-2 -187 55 0 55 0 -1 193 c-1 105
-2 195 -3 198 -2 10 -101 4 -102 -6z"/>
<path d="M11766 3550 c-2 -3 -3 -92 -4 -197 l0 -193 54 0 54 0 0 198 0 198
-51 0 c-28 0 -52 -3 -53 -6z"/>
<path d="M1665 3542 c-16 -1 -55 -10 -85 -18 -247 -70 -385 -297 -374 -615 9
-256 143 -450 353 -508 79 -22 220 -23 301 -2 123 32 232 118 282 223 29 60
61 176 50 181 -4 2 -47 3 -96 3 l-89 -1 -19 -55 c-25 -75 -82 -147 -141 -178
-70 -36 -191 -37 -260 -2 -117 59 -178 200 -171 395 10 259 117 404 305 410
136 5 227 -54 267 -173 l19 -57 88 -2 c56 -2 92 2 96 9 4 5 1 36 -6 67 -40
167 -133 265 -291 306 -59 15 -173 23 -229 17z"/>
<path d="M3995 3542 c-143 -15 -280 -101 -361 -229 -101 -157 -125 -427 -55
-613 28 -75 57 -120 115 -180 86 -90 179 -129 317 -136 183 -9 334 51 423 167
37 48 82 153 92 215 l6 40 -89 -1 c-93 0 -113 -6 -113 -32 0 -30 -51 -120 -90
-158 -50 -49 -121 -73 -204 -70 -184 8 -284 147 -284 393 0 221 83 387 212
424 97 27 217 12 276 -34 36 -28 77 -94 89 -144 l11 -42 95 0 94 1 -5 41 c-14
117 -82 242 -152 280 -60 33 -109 54 -157 65 -52 12 -167 19 -220 13z"/>
<path d="M2820 3532 c-52 -8 -152 -63 -203 -111 l-53 -50 1 65 c1 75 4 74
-110 71 l-80 -2 -2 -762 c-1 -420 1 -764 5 -764 20 -4 169 -5 178 -2 8 3 12
78 12 251 0 136 1 259 1 273 1 26 2 25 48 -18 82 -78 149 -103 282 -104 301
-2 484 210 495 573 6 205 -40 345 -149 453 -112 111 -254 154 -425 127z m157
-171 c136 -37 211 -176 211 -393 1 -170 -31 -269 -110 -345 -128 -122 -352
-105 -447 33 -47 68 -63 132 -64 259 -2 164 13 244 62 325 69 115 201 160 348
121z"/>
<path d="M839 3491 c-1 -20 -1 -1040 0 -1062 1 -14 15 -16 99 -15 l97 1 0 545
0 545 -97 1 c-84 1 -98 -1 -99 -15z"/>
<path d="M10067 2915 c-112 -29 -173 -113 -178 -246 -6 -161 50 -262 165 -299
56 -18 166 -7 216 21 47 27 86 80 95 132 l7 37 -53 0 c-51 0 -55 -2 -68 -31
-28 -63 -123 -86 -186 -45 -62 40 -83 183 -41 270 45 90 196 94 229 5 10 -26
14 -28 65 -27 l54 2 -6 34 c-8 54 -52 111 -100 132 -54 25 -139 31 -199 15z"/>
<path d="M4944 2643 l1 -268 45 -1 c25 0 50 1 56 3 6 2 10 38 9 93 -1 50 1 90
4 91 3 1 48 2 98 4 105 3 149 23 177 81 20 44 16 162 -7 197 -36 55 -58 62
-228 65 l-156 4 1 -269z m278 147 c24 -30 23 -82 -2 -105 -25 -23 -155 -33
-162 -12 -4 10 -3 140 1 143 1 0 33 0 73 -1 61 -2 74 -6 90 -25z"/>
<path d="M8612 2894 c-59 -41 12 -102 80 -68 20 10 26 20 23 36 -9 45 -61 62
-103 32z"/>
<path d="M11345 2825 c2 -54 1 -55 -26 -55 -24 0 -27 -3 -26 -35 1 -19 6 -36
11 -37 6 0 17 -2 25 -2 12 -1 15 -28 17 -141 2 -137 2 -139 28 -162 21 -18 39
-23 82 -23 l54 0 0 46 c0 28 -4 43 -10 39 -6 -3 -19 -4 -29 0 -17 5 -19 16
-17 123 l1 117 28 -1 c27 -1 28 1 25 40 -3 36 -6 41 -28 41 -26 0 -27 2 -29
73 -1 32 -1 32 -55 32 l-53 0 2 -55z"/>
<path d="M12402 2838 c3 -49 -6 -68 -31 -68 -13 0 -18 -9 -19 -34 -1 -34 18
-53 39 -40 5 3 9 -3 10 -13 0 -10 2 -72 3 -138 2 -66 6 -128 11 -138 10 -25
46 -37 106 -37 l49 0 0 39 c0 35 -3 39 -30 45 l-31 6 3 117 3 118 28 -1 c27
-1 28 0 25 40 -3 38 -5 41 -30 38 -28 -3 -28 -3 -28 52 l0 56 -55 0 -55 0 2
-42z"/>
<path d="M5819 2774 c-86 -26 -132 -106 -128 -219 5 -121 83 -195 206 -195 59
0 135 42 162 90 26 47 37 147 20 199 -35 109 -143 160 -260 125z m133 -111
c19 -20 23 -35 22 -86 0 -97 -47 -144 -117 -118 -75 29 -79 188 -6 224 38 18
71 12 101 -20z"/>
<path d="M6254 2778 c-43 -11 -88 -60 -103 -110 -17 -55 -15 -145 3 -189 18
-43 78 -99 109 -100 12 -1 35 -2 50 -3 15 -2 43 5 61 15 19 10 36 16 39 13 10
-10 -12 -79 -29 -91 -28 -21 -92 -16 -106 7 -10 16 -24 20 -70 20 -65 0 -71
-9 -41 -60 25 -43 84 -65 169 -64 80 1 122 19 158 67 20 27 21 42 23 258 1
228 1 229 -20 230 -46 2 -72 -3 -81 -16 -8 -10 -15 -9 -36 6 -30 23 -81 30
-126 17z m142 -129 c8 -16 14 -51 14 -79 0 -43 -5 -56 -29 -80 -22 -23 -35
-28 -57 -24 -36 6 -74 47 -75 82 -5 85 8 117 54 137 39 16 72 3 93 -36z"/>
<path d="M6993 2780 c-48 -11 -83 -37 -98 -73 -21 -51 -14 -62 39 -62 41 0 49
3 59 25 10 21 19 25 56 25 31 0 47 -5 55 -17 14 -22 -2 -50 -30 -54 -88 -12
-113 -18 -141 -29 -85 -35 -82 -193 5 -226 38 -15 109 -5 143 20 27 20 29 20
38 3 8 -14 21 -18 60 -18 53 1 74 12 51 26 -11 7 -14 41 -16 157 -1 81 -2 151
-3 155 -3 17 -53 57 -78 62 -58 11 -109 14 -140 6z m120 -247 c-8 -50 -25 -73
-62 -83 -41 -11 -76 5 -78 38 -2 27 25 50 73 61 66 15 72 14 67 -16z"/>
<path d="M8138 2780 c-21 -4 -46 -14 -56 -23 -23 -21 -34 -22 -30 -1 2 13 -6
17 -47 17 l-50 0 -3 -200 -2 -199 52 0 53 1 2 110 c1 61 2 122 2 138 1 31 33
67 59 67 10 0 27 -6 38 -14 17 -13 19 -28 21 -143 1 -70 2 -135 2 -143 1 -11
14 -15 51 -15 28 -1 50 4 51 10 0 5 1 68 2 138 2 122 3 130 26 148 36 30 68
24 88 -16 5 -11 9 -77 8 -147 0 -81 3 -128 10 -129 5 -1 29 -2 53 -3 l42 -2 0
153 c0 175 -9 212 -61 238 -55 29 -135 18 -164 -22 -9 -12 -15 -11 -37 6 -37
30 -68 38 -110 31z"/>
<path d="M9335 2777 c-73 -23 -116 -100 -116 -202 0 -113 60 -193 148 -197 63
-2 78 1 100 22 15 13 23 16 26 7 7 -21 -11 -81 -29 -94 -27 -20 -81 -16 -104
7 -25 25 -130 30 -130 5 0 -63 73 -108 175 -109 80 -1 136 21 169 67 20 27 21
43 23 257 l1 228 -39 4 c-42 4 -73 -7 -64 -23 10 -15 -4 -10 -33 11 -32 24
-85 31 -127 17z m125 -105 c41 -34 43 -143 3 -184 -27 -26 -79 -27 -105 -1
-41 42 -40 151 2 185 28 23 72 23 100 0z"/>
<path d="M10561 2775 c-85 -26 -130 -97 -131 -203 0 -73 28 -142 69 -171 80
-55 191 -53 261 6 77 64 89 223 25 309 -44 58 -142 84 -224 59z m138 -126 c22
-35 22 -122 0 -156 -28 -46 -98 -53 -133 -14 -25 27 -35 103 -20 146 16 47 24
55 66 64 41 9 64 -1 87 -40z"/>
<path d="M11677 2776 c-82 -24 -121 -88 -122 -201 0 -70 4 -86 27 -127 69
-117 258 -116 318 3 11 21 20 41 20 44 0 3 -23 5 -51 5 -39 0 -55 -5 -67 -20
-25 -30 -77 -34 -106 -7 -14 12 -27 32 -31 45 -7 25 -13 24 149 23 67 -1 102
2 107 10 17 29 -13 143 -49 182 -41 46 -123 64 -195 43z m116 -104 c9 -8 17
-25 17 -37 0 -20 -5 -21 -72 -20 -67 0 -73 2 -70 20 11 59 77 79 125 37z"/>
<path d="M12076 2775 c-77 -27 -114 -98 -86 -165 15 -37 51 -57 144 -81 79
-20 95 -32 80 -56 -24 -38 -118 -31 -133 10 -7 19 -16 22 -61 22 l-52 1 6 -35
c6 -39 46 -86 87 -100 39 -13 158 -7 193 10 62 30 92 110 62 167 -18 34 -56
54 -148 77 -78 20 -97 35 -73 59 26 26 78 20 106 -11 20 -23 33 -28 69 -27 25
0 44 3 43 7 -2 4 -3 16 -3 27 0 27 -56 87 -88 94 -60 14 -109 14 -146 1z"/>
<path d="M5450 2770 l-25 -6 0 -179 c-1 -99 1 -187 3 -196 2 -11 16 -15 53
-15 l49 0 0 56 c1 172 5 202 29 221 13 11 38 19 57 19 19 0 34 3 35 8 1 4 2
28 3 55 2 47 2 47 -30 47 -23 0 -44 -10 -68 -30 l-34 -31 2 26 c2 14 0 25 -3
26 -33 4 -50 4 -71 -1z"/>
<path d="M6631 2770 l-25 -6 2 -189 c1 -105 1 -192 2 -195 0 -5 62 -6 95 -1 6
0 10 44 10 114 -2 151 12 177 99 181 18 1 21 7 22 54 l0 52 -32 0 c-21 0 -42
-9 -63 -29 -31 -29 -31 -29 -31 -6 0 25 -34 36 -79 25z"/>
<path d="M7316 2768 c-8 -5 -11 -57 -10 -195 1 -103 2 -190 3 -194 0 -3 24 -5
51 -5 l50 0 1 128 c1 70 2 131 3 136 9 43 66 64 98 35 16 -14 18 -35 18 -157
l0 -141 50 -1 c28 0 51 4 51 10 1 6 2 65 3 131 2 111 13 163 34 166 4 0 16 2
27 4 11 2 29 -2 41 -10 19 -12 21 -22 20 -140 -1 -69 2 -133 5 -143 4 -12 18
-17 52 -17 26 -1 47 2 48 5 4 30 1 284 -4 311 -11 53 -46 81 -109 87 -44 3
-59 0 -89 -21 l-37 -25 -21 22 c-29 29 -138 31 -169 3 -19 -17 -20 -17 -24 -1
-2 12 -14 17 -41 18 -21 1 -44 -2 -51 -6z"/>
<path d="M8610 2770 c-7 -4 -10 -72 -8 -201 l3 -194 40 -1 c22 0 45 2 52 4 9
3 12 55 13 198 l0 194 -23 1 c-12 0 -32 2 -44 3 -12 1 -27 0 -33 -4z"/>
<path d="M8818 2772 c-10 -2 -18 -11 -19 -20 -4 -73 -1 -352 3 -363 4 -11 20
-15 54 -14 l49 1 1 129 c2 156 0 141 24 165 27 27 85 27 100 0 6 -11 12 -82
13 -157 l2 -137 53 -2 54 -1 -4 173 -3 174 -28 27 c-25 25 -34 28 -96 28 -52
0 -74 -4 -88 -17 -24 -22 -33 -23 -33 -3 0 8 -6 15 -12 16 -7 0 -22 2 -33 3
-11 1 -28 0 -37 -2z"/>
<path d="M10920 2770 l-25 -6 0 -194 0 -194 53 -1 c60 -1 54 -15 54 140 0 146
26 190 102 171 33 -8 39 -42 38 -191 l-1 -120 55 -1 54 0 0 155 c0 218 -21
256 -142 248 -44 -2 -64 -9 -83 -27 -24 -23 -25 -23 -25 -3 0 23 -36 33 -80
23z"/>
</g>
</svg>
